{"title":"The Rawside Of Metric.avi","uid":11953534,"size":733468672,"categoryP":"video","categoryS":"music_videos","magnet":"?xt=urn:btih:1c86933a1af754c63a9dc1ceec2255d1454dba31&amp;dn=The+Rawside+Of+Metric.avi&amp;tr=udp%3A%2F%2Ftracker.openbittorrent.com%3A80&amp;tr=udp%3A%2F%2Fopen.demonii.com%3A1337&amp;tr=udp%3A%2F%2Ftracker.coppersurfer.tk%3A6969&amp;tr=udp%3A%2F%2Fexodus.desync.com%3A6969","seeders":1,"leechers":0,"uploader":"mikrovision","files":1,"time":1432283341,"description":"\n    Movie: Metric\n    Detected quality: DVD\n    IMDb link: 1335701\n    IMDb rating: 8.8 (5 votes)\n    Genre: Documentary\n\n    Release date: 16 December 2008\n    Writers: Emma Kassirer (developer), James Krupa (developer), Raj Panikkar (developer), Jagori Tanna (creator), Patrick Tarr (developer)\n    Director: Matthew Hannam\n\nSummary:\nYou could turn the radio on right now any where in North America and find the electro-rock fusion of Toronto's Metric tearing up the airwaves. Since 1998 Emily Haines and Jimmy Shaw have been the life force behind this multi-platinum rock phenomenon. We are brought into the recording studio as the band finishes work on Metric's fourth studio album. Traveling between New York and Toronto Jimmy and Emily rush to perfect every nuance of each track. As with all bands at the pinnacle of success they struggle to top even themselves\n\nFormat : AVI\nFormat/Info : Audio Video Interleave\nFile size : 699 MiB\nDuration : 46mn 54s\nOverall bit rate mode : Variable\nOverall bit rate : 2 085 Kbps\nWriting application : VirtualDubMod 1.5.4.1 (build 2178/release)\nWriting library : VirtualDubMod build 2178/release\n\nVideo\nID : 0\nFormat : MPEG-4 Visual\nFormat profile : Advanced Simple@L5\nFormat settings, BVOP : 1\nFormat settings, QPel : No\nFormat settings, GMC : No warppoints\nFormat settings, Matrix : Custom\nCodec ID : XVID\nCodec ID/Hint : XviD\nDuration : 46mn 54s\nBit rate : 1 896 Kbps\nWidth : 704 pixels\nHeight : 400 pixels\nDisplay aspect ratio : 16:9\nFrame rate : 29.970 fps\nColor space : YUV\nChroma subsampling : 4:2:0\nBit depth : 8 bits\nScan type : Progressive\nCompression mode : Lossy\nBits/(Pixel*Frame) : 0.225\nStream size : 636 MiB (91%)\nWriting library : XviD 1.2.0.dev47 (UTC 2006-11-01)\n\nAudio\nID : 1\nFormat : MPEG Audio\nFormat version : Version 1\nFormat profile : Layer 3\nMode : Joint stereo\nMode extension : MS Stereo\nCodec ID : 55\nCodec ID/Hint : MP3\nDuration : 46mn 53s\nBit rate mode : Variable\nBit rate : 175 Kbps\nChannel(s) : 2 channels\nSampling rate : 48.0 KHz\nCompression mode : Lossy\nStream size : 58.7 MiB (8%)\nAlignment : Aligned on interleaves\nInterleave, duration : 24 ms (0.72 video frame)\nInterleave, preload duration : 487 ms","torrent":{"xt":"urn:btih:1c86933a1af754c63a9dc1ceec2255d1454dba31","amp;dn":"The+Rawside+Of+Metric.avi","amp;tr":["udp%3A%2F%2Ftracker.openbittorrent.com%3A80","udp%3A%2F%2Fopen.demonii.com%3A1337","udp%3A%2F%2Ftracker.coppersurfer.tk%3A6969","udp%3A%2F%2Fexodus.desync.com%3A6969"],"infoHash":"1c86933a1af754c63a9dc1ceec2255d1454dba31","infoHashBuffer":{"type":"Buffer","data":[28,134,147,58,26,247,84,198,58,157,193,206,236,34,85,209,69,77,186,49]},"announce":[],"urlList":[]}}